<?xml version="1.0" encoding="UTF-8" standalone="no"?>
<!DOCTYPE svg PUBLIC "-//W3C//DTD SVG 1.1//EN" "http://www.w3.org/Graphics/SVG/1.1/DTD/svg11.dtd">
<!-- Generated by Microsoft Visio, SVG Export agilex5_ghrd_overview.svg Page-11 -->
<svg xmlns="http://www.w3.org/2000/svg" xmlns:xlink="http://www.w3.org/1999/xlink" xmlns:ev="http://www.w3.org/2001/xml-events"
		xmlns:v="http://schemas.microsoft.com/visio/2003/SVGExtensions/" width="8.5in" height="11in" viewBox="0 0 612 792"
		xml:space="preserve" color-interpolation-filters="sRGB" class="st13">
	<v:documentProperties v:langID="17417" v:viewMarkup="false">
		<v:userDefs>
			<v:ud v:nameU="msvNoAutoConnect" v:val="VT0(1):26"/>
		</v:userDefs>
	</v:documentProperties>

	<style type="text/css">
	<![CDATA[
		.st1 {fill:#d7e3bf;stroke:#000000;stroke-linecap:round;stroke-linejoin:round;stroke-width:0.24}
		.st2 {fill:#92cddc;stroke:#000000;stroke-dasharray:1.68,1.2,0,1.2,0,1.2;stroke-linecap:round;stroke-linejoin:round;stroke-width:0.24}
		.st3 {fill:#92cddc;stroke:#000000;stroke-linecap:round;stroke-linejoin:round;stroke-width:0.24}
		.st4 {fill:#ffffff;stroke:#000000;stroke-linecap:round;stroke-linejoin:round;stroke-width:0.24}
		.st5 {fill:#000000;font-family:Calibri;font-size:0.833336em}
		.st6 {font-size:1em}
		.st7 {fill:none;stroke:none;stroke-linecap:round;stroke-linejoin:round;stroke-width:0.75}
		.st8 {fill:#000000;font-family:Calibri;font-size:1.00001em}
		.st9 {stroke:#000000;stroke-linecap:round;stroke-linejoin:round;stroke-width:0.75}
		.st10 {marker-end:url(#mrkr4-151);stroke:#000000;stroke-linecap:round;stroke-linejoin:round;stroke-width:0.75}
		.st11 {fill:#000000;fill-opacity:1;stroke:#000000;stroke-opacity:1;stroke-width:0.22935779816514}
		.st12 {marker-end:url(#mrkr5-157);stroke:#000000;stroke-linecap:round;stroke-linejoin:round;stroke-width:0.75}
		.st13 {fill:none;fill-rule:evenodd;font-size:12px;overflow:visible;stroke-linecap:square;stroke-miterlimit:3}
	]]>
	</style>

	<defs id="Markers">
		<g id="lend4">
			<path d="M 2 1 L 0 0 L 2 -1 L 2 1 " style="stroke:none"/>
		</g>
		<marker id="mrkr4-151" class="st11" v:arrowType="4" v:arrowSize="2" v:setback="8.72" refX="-8.72" orient="auto"
				markerUnits="strokeWidth" overflow="visible">
			<use xlink:href="#lend4" transform="scale(-4.36,-4.36) "/>
		</marker>
		<g id="lend5">
			<path d="M 2 1 L 0 0 L 1.98117 -0.993387 C 1.67173 -0.364515 1.67301 0.372641 1.98465 1.00043 " style="stroke:none"/>
		</g>
		<marker id="mrkr5-157" class="st11" v:arrowType="5" v:arrowSize="2" v:setback="7.63" refX="-7.63" orient="auto"
				markerUnits="strokeWidth" overflow="visible">
			<use xlink:href="#lend5" transform="scale(-4.36,-4.36) "/>
		</marker>
	</defs>
	<g v:mID="19" v:index="2" v:groupContext="foregroundPage">
		<title>SM_GHRD</title>
		<v:pageProperties v:drawingScale="1" v:pageScale="1" v:drawingUnits="19" v:shadowOffsetX="9" v:shadowOffsetY="-9"/>
		<v:layer v:name="Connector" v:index="0"/>
		<g id="shape1000-1" v:mID="1000" v:groupContext="shape" transform="translate(129.375,-41.5)">
			<title>Rectangle.1000</title>
			<v:userDefs>
				<v:ud v:nameU="visVersion" v:val="VT0(15):26"/>
			</v:userDefs>
			<rect x="0" y="423" width="434.25" height="369" class="st1"/>
		</g>
		<g id="shape1001-3" v:mID="1001" v:groupContext="shape" transform="translate(420,-239.625)">
			<title>Rectangle.1042</title>
			<v:userDefs>
				<v:ud v:nameU="visVersion" v:val="VT0(15):26"/>
			</v:userDefs>
			<path d="M0 792 L135 792 L135 684 L0 684 L0 792 Z" class="st2"/>
		</g>
		<g id="shape1002-5" v:mID="1002" v:groupContext="shape" transform="translate(168,-59.625)">
			<title>Rectangle.1032</title>
			<v:userDefs>
				<v:ud v:nameU="visVersion" v:val="VT0(15):26"/>
			</v:userDefs>
			<path d="M0 792 L162 792 L162 684 L0 684 L0 792 Z" class="st2"/>
		</g>
		<g id="shape1003-7" v:mID="1003" v:groupContext="shape" transform="translate(129.75,-412.75)">
			<title>Rectangle</title>
			<v:userDefs>
				<v:ud v:nameU="visVersion" v:val="VT0(15):26"/>
			</v:userDefs>
			<rect x="0" y="454.5" width="434.25" height="337.5" class="st3"/>
		</g>
		<g id="shape1004-9" v:mID="1004" v:groupContext="shape" transform="translate(152.25,-568)">
			<title>Rectangle.3</title>
			<desc>MPU 2x A55 2x A76</desc>
			<v:userDefs>
				<v:ud v:nameU="visVersion" v:val="VT0(15):26"/>
			</v:userDefs>
			<v:textBlock v:margins="rect(4,4,4,4)"/>
			<v:textRect cx="54" cy="711" width="108" height="162"/>
			<rect x="0" y="630" width="108" height="162" class="st4"/>
			<text x="43.93" y="702" class="st5" v:langID="1033"><v:paragraph v:horizAlign="1"/><v:tabList/>MPU<v:newlineChar/><tspan
						x="40.21" dy="1.2em" class="st6">2x A55<v:newlineChar/></tspan><tspan x="40.21" dy="1.2em" class="st6">2x A76</tspan></text>		</g>
		<g id="shape1005-14" v:mID="1005" v:groupContext="shape" transform="translate(152.25,-464.875)">
			<title>Rectangle.4</title>
			<desc>MPFE</desc>
			<v:userDefs>
				<v:ud v:nameU="visVersion" v:val="VT0(15):26"/>
			</v:userDefs>
			<v:textBlock v:margins="rect(4,4,4,4)"/>
			<v:textRect cx="54" cy="766.5" width="108" height="51"/>
			<rect x="0" y="741" width="108" height="51" class="st4"/>
			<text x="42.4" y="769.5" class="st5" v:langID="1033"><v:paragraph v:horizAlign="1"/><v:tabList/>MPFE</text>		</g>
		<g id="shape1006-17" v:mID="1006" v:groupContext="shape" transform="translate(129.75,-730.25)">
			<title>Sheet.1006</title>
			<desc>HPS</desc>
			<v:textBlock v:margins="rect(4,4,4,4)"/>
			<v:textRect cx="22.5" cy="782" width="45" height="20"/>
			<rect x="0" y="772" width="45" height="20" class="st7"/>
			<text x="12.91" y="785.6" class="st8" v:langID="1033"><v:paragraph v:horizAlign="1"/><v:tabList/>HPS</text>		</g>
		<g id="shape1007-20" v:mID="1007" v:groupContext="shape" transform="translate(458.25,-480.25)">
			<title>Rectangle.6</title>
			<desc>XGMAC0</desc>
			<v:userDefs>
				<v:ud v:nameU="visVersion" v:val="VT0(15):26"/>
			</v:userDefs>
			<v:textBlock v:margins="rect(4,4,4,4)"/>
			<v:textRect cx="24.75" cy="781.875" width="49.51" height="20.25"/>
			<rect x="0" y="771.75" width="49.5" height="20.25" class="st4"/>
			<text x="6.63" y="784.88" class="st5" v:langID="1033"><v:paragraph v:horizAlign="1"/><v:tabList/>XGMAC0</text>		</g>
		<g id="shape1008-23" v:mID="1008" v:groupContext="shape" transform="translate(458.25,-455.5)">
			<title>Rectangle.7</title>
			<desc>XGMAC1</desc>
			<v:userDefs>
				<v:ud v:nameU="visVersion" v:val="VT0(15):26"/>
			</v:userDefs>
			<v:textBlock v:margins="rect(4,4,4,4)"/>
			<v:textRect cx="24.75" cy="781.875" width="49.51" height="20.25"/>
			<rect x="0" y="771.75" width="49.5" height="20.25" class="st4"/>
			<text x="6.63" y="784.88" class="st5" v:langID="1033"><v:paragraph v:horizAlign="1"/><v:tabList/>XGMAC1</text>		</g>
		<g id="shape1009-26" v:mID="1009" v:groupContext="shape" transform="translate(458.25,-430.75)">
			<title>Rectangle.8</title>
			<desc>XGMAC2</desc>
			<v:userDefs>
				<v:ud v:nameU="visVersion" v:val="VT0(15):26"/>
			</v:userDefs>
			<v:textBlock v:margins="rect(4,4,4,4)"/>
			<v:textRect cx="24.75" cy="781.875" width="49.51" height="20.25"/>
			<rect x="0" y="771.75" width="49.5" height="20.25" class="st4"/>
			<text x="6.63" y="784.88" class="st5" v:langID="1033"><v:paragraph v:horizAlign="1"/><v:tabList/>XGMAC2</text>		</g>
		<g id="shape1010-29" v:mID="1010" v:groupContext="shape" transform="translate(287.25,-709.75)">
			<title>Rectangle.9</title>
			<desc>UART1</desc>
			<v:userDefs>
				<v:ud v:nameU="visVersion" v:val="VT0(15):26"/>
			</v:userDefs>
			<v:textBlock v:margins="rect(4,4,4,4)"/>
			<v:textRect cx="24.75" cy="781.875" width="49.51" height="20.25"/>
			<rect x="0" y="771.75" width="49.5" height="20.25" class="st4"/>
			<text x="10.96" y="784.88" class="st5" v:langID="1033"><v:paragraph v:horizAlign="1"/><v:tabList/>UART1</text>		</g>
		<g id="shape1011-32" v:mID="1011" v:groupContext="shape" transform="translate(291.75,-714.25)">
			<title>Rectangle.10</title>
			<desc>UART0/1</desc>
			<v:userDefs>
				<v:ud v:nameU="visVersion" v:val="VT0(15):26"/>
			</v:userDefs>
			<v:textBlock v:margins="rect(4,4,4,4)"/>
			<v:textRect cx="24.75" cy="781.875" width="49.51" height="20.25"/>
			<rect x="0" y="771.75" width="49.5" height="20.25" class="st4"/>
			<text x="6.5" y="784.88" class="st5" v:langID="1033"><v:paragraph v:horizAlign="1"/><v:tabList/>UART0/1</text>		</g>
		<g id="shape1012-35" v:mID="1012" v:groupContext="shape" transform="translate(350.25,-709.75)">
			<title>Rectangle.11</title>
			<desc>GPIO1</desc>
			<v:userDefs>
				<v:ud v:nameU="visVersion" v:val="VT0(15):26"/>
			</v:userDefs>
			<v:textBlock v:margins="rect(4,4,4,4)"/>
			<v:textRect cx="24.75" cy="781.875" width="49.51" height="20.25"/>
			<rect x="0" y="771.75" width="49.5" height="20.25" class="st4"/>
			<text x="11.91" y="784.88" class="st5" v:langID="1033"><v:paragraph v:horizAlign="1"/><v:tabList/>GPIO1</text>		</g>
		<g id="shape1013-38" v:mID="1013" v:groupContext="shape" transform="translate(354.75,-714.25)">
			<title>Rectangle.12</title>
			<desc>GPIO0/1</desc>
			<v:userDefs>
				<v:ud v:nameU="visVersion" v:val="VT0(15):26"/>
			</v:userDefs>
			<v:textBlock v:margins="rect(4,4,4,4)"/>
			<v:textRect cx="24.75" cy="781.875" width="49.51" height="20.25"/>
			<rect x="0" y="771.75" width="49.5" height="20.25" class="st4"/>
			<text x="7.44" y="784.88" class="st5" v:langID="1033"><v:paragraph v:horizAlign="1"/><v:tabList/>GPIO0/1</text>		</g>
		<g id="shape1014-41" v:mID="1014" v:groupContext="shape" transform="translate(458.25,-587.125)">
			<title>Rectangle.13</title>
			<desc>I2C4</desc>
			<v:userDefs>
				<v:ud v:nameU="visVersion" v:val="VT0(15):26"/>
			</v:userDefs>
			<v:textBlock v:margins="rect(4,4,4,4)"/>
			<v:textRect cx="24.75" cy="781.875" width="49.51" height="20.25"/>
			<rect x="0" y="771.75" width="49.5" height="20.25" class="st4"/>
			<text x="15.76" y="784.88" class="st5" v:langID="1033"><v:paragraph v:horizAlign="1"/><v:tabList/>I2C4</text>		</g>
		<g id="shape1015-44" v:mID="1015" v:groupContext="shape" transform="translate(458.25,-619.75)">
			<title>Rectangle.14</title>
			<desc>SPIM1</desc>
			<v:userDefs>
				<v:ud v:nameU="visVersion" v:val="VT0(15):26"/>
			</v:userDefs>
			<v:textBlock v:margins="rect(4,4,4,4)"/>
			<v:textRect cx="24.75" cy="781.875" width="49.51" height="20.25"/>
			<rect x="0" y="771.75" width="49.5" height="20.25" class="st4"/>
			<text x="11.8" y="784.88" class="st5" v:langID="1033"><v:paragraph v:horizAlign="1"/><v:tabList/>SPIM1</text>		</g>
		<g id="shape1016-47" v:mID="1016" v:groupContext="shape" transform="translate(462.75,-624.25)">
			<title>Rectangle.15</title>
			<desc>SPIM0/1</desc>
			<v:userDefs>
				<v:ud v:nameU="visVersion" v:val="VT0(15):26"/>
			</v:userDefs>
			<v:textBlock v:margins="rect(4,4,4,4)"/>
			<v:textRect cx="24.75" cy="781.875" width="49.51" height="20.25"/>
			<rect x="0" y="771.75" width="49.5" height="20.25" class="st4"/>
			<text x="7.34" y="784.88" class="st5" v:langID="1033"><v:paragraph v:horizAlign="1"/><v:tabList/>SPIM0/1</text>		</g>
		<g id="shape1017-50" v:mID="1017" v:groupContext="shape" transform="translate(458.25,-651.25)">
			<title>Rectangle.16</title>
			<desc>SPIS1</desc>
			<v:userDefs>
				<v:ud v:nameU="visVersion" v:val="VT0(15):26"/>
			</v:userDefs>
			<v:textBlock v:margins="rect(4,4,4,4)"/>
			<v:textRect cx="24.75" cy="781.875" width="49.51" height="20.25"/>
			<rect x="0" y="771.75" width="49.5" height="20.25" class="st4"/>
			<text x="13.78" y="784.88" class="st5" v:langID="1033"><v:paragraph v:horizAlign="1"/><v:tabList/>SPIS1</text>		</g>
		<g id="shape1018-53" v:mID="1018" v:groupContext="shape" transform="translate(330,-606.25)">
			<title>Rectangle.18</title>
			<desc>DMA1</desc>
			<v:userDefs>
				<v:ud v:nameU="visVersion" v:val="VT0(15):26"/>
			</v:userDefs>
			<v:textBlock v:margins="rect(4,4,4,4)"/>
			<v:textRect cx="24.75" cy="781.875" width="49.51" height="20.25"/>
			<rect x="0" y="771.75" width="49.5" height="20.25" class="st4"/>
			<text x="11.97" y="784.88" class="st5" v:langID="1033"><v:paragraph v:horizAlign="1"/><v:tabList/>DMA1</text>		</g>
		<g id="shape1019-56" v:mID="1019" v:groupContext="shape" transform="translate(330,-631)">
			<title>Rectangle.19</title>
			<desc>DMA0</desc>
			<v:userDefs>
				<v:ud v:nameU="visVersion" v:val="VT0(15):26"/>
			</v:userDefs>
			<v:textBlock v:margins="rect(4,4,4,4)"/>
			<v:textRect cx="24.75" cy="781.875" width="49.51" height="20.25"/>
			<rect x="0" y="771.75" width="49.5" height="20.25" class="st4"/>
			<text x="11.97" y="784.88" class="st5" v:langID="1033"><v:paragraph v:horizAlign="1"/><v:tabList/>DMA0</text>		</g>
		<g id="shape1020-59" v:mID="1020" v:groupContext="shape" transform="translate(413.25,-709.75)">
			<title>Rectangle.20</title>
			<desc>NAND/SDMMC</desc>
			<v:userDefs>
				<v:ud v:nameU="visVersion" v:val="VT0(15):26"/>
			</v:userDefs>
			<v:textBlock v:margins="rect(4,4,4,4)"/>
			<v:textRect cx="24.75" cy="778.5" width="49.51" height="27"/>
			<rect x="0" y="765" width="49.5" height="27" class="st4"/>
			<text x="10.39" y="775.5" class="st5" v:langID="17417"><v:paragraph v:horizAlign="1"/><v:tabList/>NAND/<tspan x="8.16"
						dy="1.2em" class="st6" v:langID="1033">SDMMC</tspan></text>		</g>
		<g id="shape1022-63" v:mID="1022" v:groupContext="shape" transform="translate(462.75,-655.75)">
			<title>Rectangle.22</title>
			<desc>SPIS0/1</desc>
			<v:userDefs>
				<v:ud v:nameU="visVersion" v:val="VT0(15):26"/>
			</v:userDefs>
			<v:textBlock v:margins="rect(4,4,4,4)"/>
			<v:textRect cx="24.75" cy="781.875" width="49.51" height="20.25"/>
			<rect x="0" y="771.75" width="49.5" height="20.25" class="st4"/>
			<text x="9.31" y="784.88" class="st5" v:langID="1033"><v:paragraph v:horizAlign="1"/><v:tabList/>SPIS0/1</text>		</g>
		<g id="shape1023-66" v:mID="1023" v:groupContext="shape" transform="translate(462.75,-591.625)">
			<title>Rectangle.23</title>
			<desc>I2C0..4</desc>
			<v:userDefs>
				<v:ud v:nameU="visVersion" v:val="VT0(15):26"/>
			</v:userDefs>
			<v:textBlock v:margins="rect(4,4,4,4)"/>
			<v:textRect cx="24.75" cy="781.875" width="49.51" height="20.25"/>
			<rect x="0" y="771.75" width="49.5" height="20.25" class="st4"/>
			<text x="10.7" y="784.88" class="st5" v:langID="1033"><v:paragraph v:horizAlign="1"/><v:tabList/>I2C0..4</text>		</g>
		<g id="shape1024-69" v:mID="1024" v:groupContext="shape" transform="translate(458.25,-555.625)">
			<title>Rectangle.24</title>
			<desc>I2C4</desc>
			<v:userDefs>
				<v:ud v:nameU="visVersion" v:val="VT0(15):26"/>
			</v:userDefs>
			<v:textBlock v:margins="rect(4,4,4,4)"/>
			<v:textRect cx="24.75" cy="781.875" width="49.51" height="20.25"/>
			<rect x="0" y="771.75" width="49.5" height="20.25" class="st4"/>
			<text x="15.76" y="784.88" class="st5" v:langID="1033"><v:paragraph v:horizAlign="1"/><v:tabList/>I2C4</text>		</g>
		<g id="shape1025-72" v:mID="1025" v:groupContext="shape" transform="translate(462.75,-560.125)">
			<title>Rectangle.25</title>
			<desc>I3C0/1</desc>
			<v:userDefs>
				<v:ud v:nameU="visVersion" v:val="VT0(15):26"/>
			</v:userDefs>
			<v:textBlock v:margins="rect(4,4,4,4)"/>
			<v:textRect cx="24.75" cy="781.875" width="49.51" height="20.25"/>
			<rect x="0" y="771.75" width="49.5" height="20.25" class="st4"/>
			<text x="11.29" y="784.88" class="st5" v:langID="1033"><v:paragraph v:horizAlign="1"/><v:tabList/>I3C0/1</text>		</g>
		<g id="shape1026-75" v:mID="1026" v:groupContext="shape" transform="translate(458.25,-529.75)">
			<title>Rectangle.26</title>
			<desc>USB2OTG</desc>
			<v:userDefs>
				<v:ud v:nameU="visVersion" v:val="VT0(15):26"/>
			</v:userDefs>
			<v:textBlock v:margins="rect(4,4,4,4)"/>
			<v:textRect cx="24.75" cy="781.875" width="49.51" height="20.25"/>
			<rect x="0" y="771.75" width="49.5" height="20.25" class="st4"/>
			<text x="5.09" y="784.88" class="st5" v:langID="1033"><v:paragraph v:horizAlign="1"/><v:tabList/>USB2OTG</text>		</g>
		<g id="shape1027-78" v:mID="1027" v:groupContext="shape" transform="translate(458.25,-505)">
			<title>Rectangle.27</title>
			<desc>USB3.1</desc>
			<v:userDefs>
				<v:ud v:nameU="visVersion" v:val="VT0(15):26"/>
			</v:userDefs>
			<v:textBlock v:margins="rect(4,4,4,4)"/>
			<v:textRect cx="24.75" cy="781.875" width="49.51" height="20.25"/>
			<rect x="0" y="771.75" width="49.5" height="20.25" class="st4"/>
			<text x="10.19" y="784.88" class="st5" v:langID="1033"><v:paragraph v:horizAlign="1"/><v:tabList/>USB3.1</text>		</g>
		<g id="shape1028-81" v:mID="1028" v:groupContext="shape" v:layerMember="0" transform="translate(260.25,-654.062)">
			<title>Dynamic connector.29</title>
			<path d="M0 797.06 L13.5 797.06 L13.5 754.31 L151.87 754.31 L151.87 804.94 L119.25 804.94" class="st9"/>
		</g>
		<g id="shape1029-84" v:mID="1029" v:groupContext="shape" v:layerMember="0" transform="translate(260.25,-649)">
			<title>Dynamic connector.30</title>
			<path d="M0 792 L12.94 792 L12.94 749.25 L51.75 749.25 L51.75 731.25" class="st9"/>
		</g>
		<g id="shape1030-87" v:mID="1030" v:groupContext="shape" v:layerMember="0" transform="translate(260.25,-649)">
			<title>Dynamic connector.31</title>
			<path d="M0 792 L12.94 792 L12.94 749.25 L114.75 749.25 L114.75 731.25" class="st9"/>
		</g>
		<g id="shape1031-90" v:mID="1031" v:groupContext="shape" v:layerMember="0" transform="translate(260.25,-649)">
			<title>Dynamic connector.32</title>
			<path d="M0 792 L12.94 792 L12.94 749.25 L177.75 749.25 L177.75 731.25" class="st9"/>
		</g>
		<g id="shape1033-93" v:mID="1033" v:groupContext="shape" v:layerMember="0" transform="translate(260.25,-646.187)">
			<title>Dynamic connector.34</title>
			<path d="M0 789.19 L13.5 789.19 L13.5 746.44 L151.87 746.44 L151.87 776.81 L198 776.81" class="st9"/>
		</g>
		<g id="shape1034-96" v:mID="1034" v:groupContext="shape" v:layerMember="0" transform="translate(260.25,-649)">
			<title>Dynamic connector.35</title>
			<path d="M0 792 L12.94 792 L12.94 749.25 L151.87 749.25 L151.87 811.13 L198 811.13" class="st9"/>
		</g>
		<g id="shape1035-99" v:mID="1035" v:groupContext="shape" v:layerMember="0" transform="translate(260.25,-649)">
			<title>Dynamic connector.36</title>
			<path d="M0 792 L12.94 792 L12.94 749.25 L151.87 749.25 L151.87 824.63 L119.25 824.63" class="st9"/>
		</g>
		<g id="shape1036-102" v:mID="1036" v:groupContext="shape" v:layerMember="0" transform="translate(260.25,-649)">
			<title>Dynamic connector.37</title>
			<path d="M0 792 L12.94 792 L12.94 749.25 L151.87 749.25 L151.87 843.75 L198 843.75" class="st9"/>
		</g>
		<g id="shape1037-105" v:mID="1037" v:groupContext="shape" v:layerMember="0" transform="translate(260.25,-649)">
			<title>Dynamic connector.1000</title>
			<path d="M0 792 L13.5 792 L13.5 749.25 L151.87 749.25 L151.87 875.25 L198 875.25" class="st9"/>
		</g>
		<g id="shape1038-108" v:mID="1038" v:groupContext="shape" v:layerMember="0" transform="translate(260.25,-649)">
			<title>Dynamic connector.1001</title>
			<path d="M0 792 L13.5 792 L13.5 749.25 L151.87 749.25 L151.87 901.13 L198 901.13" class="st9"/>
		</g>
		<g id="shape1039-111" v:mID="1039" v:groupContext="shape" v:layerMember="0" transform="translate(260.25,-649)">
			<title>Dynamic connector.1002</title>
			<path d="M0 792 L13.5 792 L13.5 749.25 L151.87 749.25 L151.87 925.87 L198 925.87" class="st9"/>
		</g>
		<g id="shape1040-114" v:mID="1040" v:groupContext="shape" v:layerMember="0" transform="translate(260.25,-649)">
			<title>Dynamic connector.1003</title>
			<path d="M0 792 L13.5 792 L13.5 749.25 L151.87 749.25 L151.87 950.62 L198 950.62" class="st9"/>
		</g>
		<g id="shape1041-117" v:mID="1041" v:groupContext="shape" v:layerMember="0" transform="translate(260.25,-649)">
			<title>Dynamic connector.1004</title>
			<path d="M0 792 L13.5 792 L13.5 749.25 L151.87 749.25 L151.87 975.37 L198 975.37" class="st9"/>
		</g>
		<g id="shape1042-120" v:mID="1042" v:groupContext="shape" v:layerMember="0" transform="translate(260.25,-649)">
			<title>Dynamic connector.1005</title>
			<path d="M0 792 L13.5 792 L13.5 749.25 L151.87 749.25 L151.87 1000.12 L198 1000.12" class="st9"/>
		</g>
		<g id="shape1043-123" v:mID="1043" v:groupContext="shape" transform="translate(152.25,-523)">
			<title>Rectangle.1006</title>
			<desc>CCU</desc>
			<v:userDefs>
				<v:ud v:nameU="visVersion" v:val="VT0(15):26"/>
			</v:userDefs>
			<v:textBlock v:margins="rect(4,4,4,4)"/>
			<v:textRect cx="54" cy="772.875" width="108" height="38.25"/>
			<rect x="0" y="753.75" width="108" height="38.25" class="st4"/>
			<text x="45.46" y="775.88" class="st5" v:langID="1033"><v:paragraph v:horizAlign="1"/><v:tabList/>CCU</text>		</g>
		<g id="shape1044-126" v:mID="1044" v:groupContext="shape" transform="translate(136.5,-397)">
			<title>Rectangle.1007</title>
			<desc>F2SDRAM256</desc>
			<v:userDefs>
				<v:ud v:nameU="visVersion" v:val="VT0(15):26"/>
			</v:userDefs>
			<v:textBlock v:margins="rect(4,4,4,4)"/>
			<v:textRect cx="32.625" cy="778.5" width="65.26" height="27"/>
			<rect x="0" y="765" width="65.25" height="27" class="st4"/>
			<text x="4.93" y="781.5" class="st5" v:langID="1033"><v:paragraph v:horizAlign="1"/><v:tabList/>F2SDRAM<tspan
						class="st6" v:langID="17417">256</tspan></text>		</g>
		<g id="shape1045-130" v:mID="1045" v:groupContext="shape" transform="translate(210.75,-397)">
			<title>Rectangle.1008</title>
			<desc>F2S256</desc>
			<v:userDefs>
				<v:ud v:nameU="visVersion" v:val="VT0(15):26"/>
			</v:userDefs>
			<v:textBlock v:margins="rect(4,4,4,4)"/>
			<v:textRect cx="24.75" cy="778.5" width="49.51" height="27"/>
			<rect x="0" y="765" width="49.5" height="27" class="st4"/>
			<text x="10.02" y="781.5" class="st5" v:langID="1033"><v:paragraph v:horizAlign="1"/><v:tabList/>F2S256</text>		</g>
		<g id="shape1046-133" v:mID="1046" v:groupContext="shape" transform="translate(280.5,-397)">
			<title>Rectangle.1009</title>
			<desc>LWS2F32</desc>
			<v:userDefs>
				<v:ud v:nameU="visVersion" v:val="VT0(15):26"/>
			</v:userDefs>
			<v:textBlock v:margins="rect(4,4,4,4)"/>
			<v:textRect cx="24.75" cy="778.5" width="49.51" height="27"/>
			<rect x="0" y="765" width="49.5" height="27" class="st4"/>
			<text x="6" y="781.5" class="st5" v:langID="1033"><v:paragraph v:horizAlign="1"/><v:tabList/>LWS2F32</text>		</g>
		<g id="shape1047-136" v:mID="1047" v:groupContext="shape" transform="translate(339,-397)">
			<title>Rectangle.1010</title>
			<desc>H2F128</desc>
			<v:userDefs>
				<v:ud v:nameU="visVersion" v:val="VT0(15):26"/>
			</v:userDefs>
			<v:textBlock v:margins="rect(4,4,4,4)"/>
			<v:textRect cx="34.875" cy="778.5" width="69.75" height="27"/>
			<rect x="0" y="765" width="69.75" height="27" class="st4"/>
			<text x="19.33" y="781.5" class="st5" v:langID="17417"><v:paragraph v:horizAlign="1"/><v:tabList/>H<tspan class="st6"
						v:langID="1033">2F128</tspan></text>		</g>
		<g id="shape1048-140" v:mID="1048" v:groupContext="shape" v:layerMember="0" transform="translate(169.125,-424)">
			<title>Dynamic connector.1011</title>
			<path d="M0 792 L0 778.5 L37.13 778.5 L37.13 751.13" class="st9"/>
		</g>
		<g id="shape1049-143" v:mID="1049" v:groupContext="shape" v:layerMember="0" transform="translate(235.5,-424)">
			<title>Dynamic connector.1012</title>
			<path d="M0 792 L0 778.5 L-29.25 778.5 L-29.25 751.13" class="st9"/>
		</g>
		<g id="shape1050-146" v:mID="1050" v:groupContext="shape" v:layerMember="0" transform="translate(260.25,-649)">
			<title>Dynamic connector.1013</title>
			<path d="M0 792 L45 792 L45 1010.46" class="st10"/>
		</g>
		<g id="shape1051-152" v:mID="1051" v:groupContext="shape" v:layerMember="0" transform="translate(260.25,-649)">
			<title>Dynamic connector.1014</title>
			<path d="M0 792 L45 792 L45 951.75 L113.62 951.75 L113.62 1011.28" class="st12"/>
		</g>
		<g id="shape1052-158" v:mID="1052" v:groupContext="shape" transform="translate(63.75,-464.875)">
			<title>Square.1015</title>
			<desc>EMIF</desc>
			<v:userDefs>
				<v:ud v:nameU="visVersion" v:val="VT0(15):26"/>
			</v:userDefs>
			<v:textBlock v:margins="rect(4,4,4,4)"/>
			<v:textRect cx="25.5" cy="766.5" width="51.01" height="51"/>
			<rect x="0" y="741" width="51" height="51" class="st4"/>
			<text x="15.23" y="769.5" class="st5" v:langID="1033"><v:paragraph v:horizAlign="1"/><v:tabList/>EMIF</text>		</g>
		<g id="shape1053-161" v:mID="1053" v:groupContext="shape" transform="translate(129.75,-36)">
			<title>Sheet.1053</title>
			<desc>FPGA Fabric</desc>
			<v:textBlock v:margins="rect(4,4,4,4)"/>
			<v:textRect cx="37.7" cy="782" width="75.41" height="20"/>
			<rect x="0" y="772" width="75.4" height="20" class="st7"/>
			<text x="8.44" y="785.6" class="st8" v:langID="1033"><v:paragraph v:horizAlign="1"/><v:tabList/>FPGA Fabric</text>		</g>
		<g id="shape1054-164" v:mID="1054" v:groupContext="shape" transform="translate(442.5,-64)">
			<title>Rectangle.1023</title>
			<desc>Onchip Memory</desc>
			<v:userDefs>
				<v:ud v:nameU="visVersion" v:val="VT0(15):26"/>
			</v:userDefs>
			<v:textBlock v:margins="rect(4,4,4,4)"/>
			<v:textRect cx="34.875" cy="767.25" width="69.75" height="49.5"/>
			<rect x="0" y="742.5" width="69.75" height="49.5" class="st4"/>
			<text x="20.42" y="764.25" class="st5" v:langID="1033"><v:paragraph v:horizAlign="1"/><v:tabList/>Onchip <tspan
						x="17.48" dy="1.2em" class="st6">Memory</tspan></text>		</g>
		<g id="shape1055-168" v:mID="1055" v:groupContext="shape" transform="translate(200.6,-129.25)">
			<title>Rectangle.1025</title>
			<desc>SysID</desc>
			<v:userDefs>
				<v:ud v:nameU="visVersion" v:val="VT0(15):26"/>
			</v:userDefs>
			<v:textBlock v:margins="rect(4,4,4,4)"/>
			<v:textRect cx="37.7" cy="781.875" width="75.41" height="20.25"/>
			<rect x="0" y="771.75" width="75.4" height="20.25" class="st4"/>
			<text x="26.85" y="784.88" class="st5" v:langID="1033"><v:paragraph v:horizAlign="1"/><v:tabList/>SysID</text>		</g>
		<g id="shape1056-171" v:mID="1056" v:groupContext="shape" transform="translate(200.6,-74.125)">
			<title>Rectangle.1027</title>
			<desc>PIO0..2</desc>
			<v:userDefs>
				<v:ud v:nameU="visVersion" v:val="VT0(15):26"/>
			</v:userDefs>
			<v:textBlock v:margins="rect(4,4,4,4)"/>
			<v:textRect cx="34.875" cy="781.875" width="69.75" height="20.25"/>
			<rect x="0" y="771.75" width="69.75" height="20.25" class="st4"/>
			<text x="20.13" y="784.88" class="st5" v:langID="1033"><v:paragraph v:horizAlign="1"/><v:tabList/>PIO0..2</text>		</g>
		<g id="shape1057-174" v:mID="1057" v:groupContext="shape" transform="translate(205.125,-76.375)">
			<title>Rectangle.1028</title>
			<desc>PIO0..2</desc>
			<v:userDefs>
				<v:ud v:nameU="visVersion" v:val="VT0(15):26"/>
			</v:userDefs>
			<v:textBlock v:margins="rect(4,4,4,4)"/>
			<v:textRect cx="34.875" cy="781.875" width="69.75" height="20.25"/>
			<rect x="0" y="771.75" width="69.75" height="20.25" class="st4"/>
			<text x="20.13" y="784.88" class="st5" v:langID="1033"><v:paragraph v:horizAlign="1"/><v:tabList/>PIO0..2</text>		</g>
		<g id="shape1058-177" v:mID="1058" v:groupContext="shape" transform="translate(164.25,-148.75)">
			<title>Sheet.1058</title>
			<desc>Peripherals subsystem</desc>
			<v:textBlock v:margins="rect(4,4,4,4)"/>
			<v:textRect cx="63" cy="782" width="126" height="20"/>
			<rect x="0" y="772" width="126" height="20" class="st7"/>
			<text x="8.26" y="785.6" class="st8" v:langID="1033"><v:paragraph v:horizAlign="1"/><v:tabList/>Peripherals subsystem</text>		</g>
		<g id="shape1059-180" v:mID="1059" v:groupContext="shape" transform="translate(417.75,-386)">
			<title>Rectangle.1034</title>
			<desc>Reset Release</desc>
			<v:userDefs>
				<v:ud v:nameU="visVersion" v:val="VT0(15):26"/>
			</v:userDefs>
			<v:textBlock v:margins="rect(4,4,4,4)"/>
			<v:textRect cx="51.75" cy="782" width="103.5" height="20"/>
			<rect x="0" y="772" width="103.5" height="20" class="st4"/>
			<text x="23.62" y="785" class="st5" v:langID="1033"><v:paragraph v:horizAlign="1"/><v:tabList/>Reset Release</text>		</g>
		<g id="shape1060-183" v:mID="1060" v:groupContext="shape" transform="translate(484.125,-201.375)">
			<title>Rectangle.1035</title>
			<desc>Addr Expander</desc>
			<v:userDefs>
				<v:ud v:nameU="visVersion" v:val="VT0(15):26"/>
			</v:userDefs>
			<v:textBlock v:margins="rect(4,4,4,4)"/>
			<v:textRect cx="34.875" cy="781.875" width="69.75" height="20.25"/>
			<rect x="0" y="771.75" width="69.75" height="20.25" class="st4"/>
			<text x="4.74" y="784.88" class="st5" v:langID="1033"><v:paragraph v:horizAlign="1"/><v:tabList/>Addr Expander</text>		</g>
		<g id="shape1061-186" v:mID="1061" v:groupContext="shape" transform="translate(429,-246.375)">
			<title>Rectangle.1037</title>
			<desc>HPS Jtag Master</desc>
			<v:userDefs>
				<v:ud v:nameU="visVersion" v:val="VT0(15):26"/>
			</v:userDefs>
			<v:textBlock v:margins="rect(4,4,4,4)"/>
			<v:textRect cx="24.75" cy="770.625" width="49.51" height="42.75"/>
			<rect x="0" y="749.25" width="49.5" height="42.75" class="st4"/>
			<text x="7.61" y="767.63" class="st5" v:langID="1033"><v:paragraph v:horizAlign="1"/><v:tabList/>HPS Jtag <tspan
						x="10.22" dy="1.2em" class="st6">Master</tspan></text>		</g>
		<g id="shape1062-190" v:mID="1062" v:groupContext="shape" transform="translate(429,-300.375)">
			<title>Rectangle.1038</title>
			<desc>FPGA Jtag Master</desc>
			<v:userDefs>
				<v:ud v:nameU="visVersion" v:val="VT0(15):26"/>
			</v:userDefs>
			<v:textBlock v:margins="rect(4,4,4,4)"/>
			<v:textRect cx="59.625" cy="781.875" width="119.25" height="20.25"/>
			<rect x="0" y="771.75" width="119.25" height="20.25" class="st4"/>
			<text x="23.89" y="784.88" class="st5" v:langID="1033"><v:paragraph v:horizAlign="1"/><v:tabList/>FPGA Jtag Master</text>		</g>
		<g id="shape1063-193" v:mID="1063" v:groupContext="shape" transform="translate(424.5,-327.625)">
			<title>Sheet.1063</title>
			<desc>Debug subsystem</desc>
			<v:textBlock v:margins="rect(4,4,4,4)"/>
			<v:textRect cx="49.05" cy="782" width="98.1" height="20"/>
			<rect x="0" y="772" width="98.1" height="20" class="st7"/>
			<text x="6.04" y="785.6" class="st8" v:langID="1033"><v:paragraph v:horizAlign="1"/><v:tabList/>Debug subsystem</text>		</g>
		<g id="shape1064-196" v:mID="1064" v:groupContext="shape" transform="translate(200.625,-311.5)">
			<title>Rectangle.1047</title>
			<desc>Altera ACE5-Lite Cache Coherency Translator</desc>
			<v:userDefs>
				<v:ud v:nameU="visVersion" v:val="VT0(15):26"/>
			</v:userDefs>
			<v:textBlock v:margins="rect(4,4,4,4)"/>
			<v:textRect cx="34.875" cy="767.25" width="69.75" height="49.5"/>
			<rect x="0" y="742.5" width="69.75" height="49.5" class="st4"/>
			<text x="9.34" y="752.25" class="st5" v:langID="17417"><v:paragraph v:horizAlign="1"/><v:tabList/>Altera ACE5-<tspan
						x="14.04" dy="1.2em" class="st6">Lite Cache </tspan><tspan x="13.22" dy="1.2em" class="st6">Coherency </tspan><tspan
						x="14.12" dy="1.2em" class="st6">Translator</tspan></text>		</g>
		<g id="shape1065-202" v:mID="1065" v:groupContext="shape" v:layerMember="0" transform="translate(226.5,-361)">
			<title>Dynamic connector.1048</title>
			<path d="M9 792 L9 762.54" class="st10"/>
		</g>
		<g id="shape1066-207" v:mID="1066" v:groupContext="shape" v:layerMember="0" transform="translate(305.25,-397)">
			<title>Dynamic connector.1053</title>
			<path d="M0 792 L0 1049.62 L-22.71 1049.62" class="st10"/>
		</g>
		<g id="shape1067-212" v:mID="1067" v:groupContext="shape" v:layerMember="0" transform="translate(305.25,-397)">
			<title>Dynamic connector.1058</title>
			<path d="M0 792 L0 1102.5 L-23.84 1102.5" class="st10"/>
		</g>
		<g id="shape1068-217" v:mID="1068" v:groupContext="shape" v:layerMember="0" transform="translate(426.75,-310.5)">
			<title>Dynamic connector.1059</title>
			<path d="M2.25 792 L-52.88 792 L-52.88 1013.75 L9.21 1013.75" class="st10"/>
		</g>
		<g id="shape1069-222" v:mID="1069" v:groupContext="shape" v:layerMember="0" transform="translate(519,-201.375)">
			<title>Dynamic connector.1063</title>
			<path d="M0 792 L0 811.13 L-142.12 811.13 A3 3 -180 0 0 -148.13 811.13 L-210.75 811.13 A3 3 -180 0 0 -216.75 811.13 L-349.87
						 811.13 L-349.87 688.42" class="st10"/>
		</g>
		<g id="shape1070-227" v:mID="1070" v:groupContext="shape" transform="translate(489.75,-246.375)">
			<title>Rectangle.1064</title>
			<desc>HPS F2SDRAM Jtag Master</desc>
			<v:userDefs>
				<v:ud v:nameU="visVersion" v:val="VT0(15):26"/>
			</v:userDefs>
			<v:textBlock v:margins="rect(4,4,4,4)"/>
			<v:textRect cx="29.25" cy="770.625" width="58.5" height="42.75"/>
			<rect x="0" y="749.25" width="58.5" height="42.75" class="st4"/>
			<text x="21.25" y="761.62" class="st5" v:langID="17417"><v:paragraph v:horizAlign="1"/><v:tabList/>HPS <tspan x="9.16"
						dy="1.2em" class="st6">F2SDRAM</tspan><tspan class="st6" v:langID="1033"> </tspan><tspan x="5.57"
						dy="1.2em" class="st6" v:langID="1033">Jtag Master</tspan></text>		</g>
		<g id="shape1071-233" v:mID="1071" v:groupContext="shape" v:layerMember="0" transform="translate(114.75,-481.375)">
			<title>Dynamic connector.1065</title>
			<path d="M0 783 L37.5 783" class="st9"/>
		</g>
		<g id="shape1072-236" v:mID="1072" v:groupContext="shape" v:layerMember="0" transform="translate(548.25,-313.875)">
			<title>Dynamic connector.1066</title>
			<path d="M0 792 L11.25 792 L11.25 587.38 L-33.96 587.38" class="st10"/>
		</g>
		<g id="shape1073-241" v:mID="1073" v:groupContext="shape" transform="translate(417.75,-364.375)">
			<title>Rectangle.1067</title>
			<desc>GTS Reset Sequencer</desc>
			<v:userDefs>
				<v:ud v:nameU="visVersion" v:val="VT0(15):26"/>
			</v:userDefs>
			<v:textBlock v:margins="rect(4,4,4,4)"/>
			<v:textRect cx="51.75" cy="781.875" width="103.5" height="20.25"/>
			<rect x="0" y="771.75" width="103.5" height="20.25" class="st4"/>
			<text x="8.78" y="784.88" class="st5" v:langID="17417"><v:paragraph v:horizAlign="1"/><v:tabList/>GTS Reset Sequencer</text>		</g>
		<g id="shape1074-244" v:mID="1074" v:groupContext="shape" transform="translate(144.375,-311.5)">
			<title>Rectangle.1068</title>
			<desc>F2SDRAM adapter</desc>
			<v:userDefs>
				<v:ud v:nameU="visVersion" v:val="VT0(15):26"/>
			</v:userDefs>
			<v:textBlock v:margins="rect(4,4,4,4)"/>
			<v:textRect cx="24.75" cy="767.25" width="49.51" height="49.5"/>
			<rect x="0" y="742.5" width="49.5" height="49.5" class="st4"/>
			<text x="4.66" y="764.25" class="st5" v:langID="17417"><v:paragraph v:horizAlign="1"/><v:tabList/>F2SDRAM <tspan
						x="8.8" dy="1.2em" class="st6">adapter</tspan></text>		</g>
		<g id="shape1075-248" v:mID="1075" v:groupContext="shape" v:layerMember="0" transform="translate(160.125,-361)">
			<title>Dynamic connector.1069</title>
			<path d="M9 792 L9 762.54" class="st10"/>
		</g>
		<g id="shape1076-253" v:mID="1076" v:groupContext="shape" v:layerMember="0" transform="translate(528,-246.375)">
			<title>Dynamic connector.1070</title>
			<path d="M-9 792 L-9 816.75" class="st9"/>
		</g>
		<g id="shape1077-256" v:mID="1077" v:groupContext="shape" v:layerMember="0" transform="translate(429,-267.75)">
			<title>Dynamic connector.1071</title>
			<path d="M0 792 L-52.13 792 A3 3 -180 0 0 -58.13 792 L-120.75 792 A3 3 -180 0 0 -126.75 792 L-193.5 792 L-193.5 754.79"
					class="st10"/>
		</g>
		<g id="shape1078-261" v:mID="1078" v:groupContext="shape" v:layerMember="0" transform="translate(429,-310.5)">
			<title>Dynamic connector.1072</title>
			<path d="M0 792 L-55.13 792 L-55.13 705.5" class="st9"/>
		</g>
		<g id="shape1079-264" v:mID="1079" v:groupContext="shape" v:layerMember="0" transform="translate(305.25,-397.125)">
			<title>Dynamic connector.1079</title>
			<path d="M0 792 L0 833.5 L65.62 833.5 A3 3 0 0 1 71.62 833.5 L230.25 833.5 L230.25 680.5 L209.04 680.5" class="st10"/>
		</g>
	</g>
</svg>
